<svg width="12" height="13" viewBox="0 0 12 13" fill="none" xmlns="http://www.w3.org/2000/svg">
<g clip-path="url(#clip0_678_6701)">
<path d="M0.80341 9.5C1.21699 10.2178 2.13417 10.4644 2.85196 10.0508C2.85246 10.0505 2.85293 10.0503 2.85342 10.05L3.07591 9.92148C3.49591 10.2808 3.97868 10.5595 4.4999 10.7435V11C4.4999 11.8284 5.17148 12.5 5.9999 12.5C6.82832 12.5 7.4999 11.8284 7.4999 11V10.7435C8.0212 10.5592 8.50399 10.2802 8.92389 9.92049L9.1474 10.0495C9.86536 10.4637 10.7832 10.2175 11.1974 9.49948C11.6116 8.78152 11.3654 7.86369 10.6474 7.44948L10.4254 7.32148C10.5253 6.77771 10.5253 6.22027 10.4254 5.67648L10.6474 5.54848C11.3654 5.13427 11.6116 4.21646 11.1974 3.49848C10.7832 2.78052 9.86538 2.53426 9.1474 2.94847L8.9249 3.07698C8.50448 2.71808 8.02139 2.43992 7.4999 2.2565V2C7.4999 1.17158 6.82832 0.5 5.9999 0.5C5.17148 0.5 4.4999 1.17158 4.4999 2V2.2565C3.97861 2.44079 3.49582 2.71979 3.07591 3.07951L2.85241 2.95002C2.13443 2.53578 1.21661 2.78204 0.802402 3.5C0.388192 4.21796 0.634426 5.1358 1.35241 5.55001L1.57441 5.678C1.47447 6.22177 1.47447 6.77921 1.57441 7.32301L1.35241 7.451C0.636418 7.86631 0.390981 8.78234 0.80341 9.5ZM5.9999 4.50001C7.10447 4.50001 7.9999 5.39544 7.9999 6.5C7.9999 7.60456 7.10447 8.49999 5.9999 8.49999C4.89534 8.49999 3.99991 7.60456 3.99991 6.5C3.99991 5.39544 4.89534 4.50001 5.9999 4.50001Z" fill="#6C6C6C"/>
</g>
<defs>
<clipPath id="clip0_678_6701">
<rect width="12" height="12" fill="white" transform="translate(0 0.5)"/>
</clipPath>
</defs>
</svg>
