<svg width="453" height="176" viewBox="0 0 453 176" fill="none" xmlns="http://www.w3.org/2000/svg">
<path d="M26.12 44.56V13.76H20.12V59.76H25.32C25.96 55.6 26.12 50 26.12 44.56ZM6.84 59.76V13.76H1.56V2.24H44.28V13.76H39.24V44.08C39.24 49.68 38.92 55.52 38.12 59.76C43.4 59.6 46.76 58.72 49.08 56.64V0.959997H63.08V75.92H49.08V67.6C46.52 70.24 42.12 71.2 35.16 71.2H0.68V59.76H6.84ZM124.437 30.8V14.08H78.2769V2.24H138.437V28.8C138.437 37.44 137.797 47.2 136.357 54H122.357C123.797 47.36 124.437 38.32 124.437 30.8ZM142.037 72.8H75.1569V61.2H142.037V72.8ZM204.114 16.4H214.354V26H153.234V16.4H162.914V11.6H154.434V1.84H213.154V11.6H204.594V13.2C204.594 14.4 204.434 15.36 204.114 16.4ZM190.994 11.6H176.594V16.4H190.434C190.834 15.44 190.994 14.48 190.994 13.52V11.6ZM217.714 39.04H149.874V28.88H217.714V39.04ZM213.154 64.4H168.194V67.2H214.674V76.64H154.434V54.96H199.314V52.08H154.434V42.56H213.154V64.4ZM239.311 29.92V36.88H250.911C255.791 36.88 258.751 36.32 261.151 34.72V1.44H272.991V19.92H277.391V0.959997H289.711V55.76H277.391V31.52H272.991V54.48H261.151V44.88C258.831 46.64 255.471 47.52 248.991 47.52H226.991V19.36H243.951V12.56H226.991V1.84H256.271V29.92H239.311ZM290.751 64.96V76.32H231.951V51.52H245.951V64.96H290.751ZM9.96 127.76H1.8V116.8H10.28C16.36 116.8 21.48 116.64 25 115.92C25.24 114.32 25.4 112.72 25.4 110.96H1.8V99.84H39.32V107.84C39.32 110.8 39.16 113.52 38.76 116.16H49.16V98.96H63.16V151.52H49.16V127.76H35.08C29.4 138.72 17.88 144.88 0.12 146.24V134.96C9.24 134.16 15.8 131.6 19.88 127.12C16.92 127.6 13.48 127.76 9.96 127.76ZM64.12 162.96V174.32H5.96V147.36H19.96V162.96H64.12ZM89.3169 99.44H103.397V105.28C103.397 117.68 109.077 122.16 118.037 124.16V135.52C109.637 134.8 100.597 130.96 96.4369 125.68C92.2769 131.2 83.3169 135.28 74.5969 136.48V125.04C83.7169 122.88 89.3169 117.52 89.3169 105.28V99.44ZM138.357 98.96V135.68H124.357V119.36H110.997V107.92H124.357V98.96H138.357ZM138.357 161.44H94.9969V164.96H139.157V174.64H81.1569V151.76H124.437V148.08H81.1569V138.32H138.357V161.44ZM189.234 125.92H165.714V131.36H186.514C193.074 131.36 196.754 130.56 199.554 128.8V98.96H213.554V144.72H199.554V138.88C196.834 140.96 192.194 141.76 184.674 141.76H152.194V99.84H190.994V110.4H165.714V115.52H189.234V125.92ZM155.554 160.56C155.554 155.84 157.874 152.4 161.794 149.92C167.074 146.64 175.394 145.36 185.394 145.36C195.314 145.36 203.714 146.64 208.994 149.92C212.994 152.4 215.234 155.84 215.234 160.56C215.234 165.2 212.994 168.72 208.994 171.04C203.714 174.32 195.314 175.6 185.394 175.6C175.394 175.6 167.074 174.32 161.794 171.04C157.874 168.72 155.554 165.2 155.554 160.56ZM169.314 160.56C169.314 161.52 169.874 162.32 170.994 162.96C173.314 164.24 178.354 164.8 185.394 164.8C192.434 164.8 197.394 164.24 199.794 162.96C200.834 162.32 201.314 161.52 201.314 160.56C201.314 159.52 200.834 158.72 199.794 158.24C197.394 156.88 192.434 156.32 185.394 156.32C178.354 156.32 173.314 156.88 170.994 158.24C169.874 158.72 169.314 159.52 169.314 160.56ZM240.663 111.2V99.84H280.583V111.2H267.463V113.28C267.463 125.84 272.343 130.72 281.863 132.56V144.08C273.303 143.12 265.143 139.36 260.743 134.16C256.263 139.52 247.543 144 239.383 144.88V133.36C248.583 131.52 253.703 126.08 253.703 113.28V111.2H240.663ZM302.023 98.96V151.52H288.023V98.96H302.023ZM302.983 162.96V174.32H244.823V147.36H258.823V162.96H302.983ZM346.659 141.76H314.979V99.84H353.379V111.2H328.659V130.48H348.579C354.899 130.48 358.659 129.68 361.379 127.84V98.96H375.379V117.84H385.219V129.44H375.379V151.52H361.379V138.64C358.659 140.8 354.019 141.76 346.659 141.76ZM318.899 147.04H332.899V162.96H376.419V174.32H318.899V147.04ZM410.336 155.68C406.656 162.32 397.936 167.84 388.656 169.6V157.44C397.376 153.92 403.376 147.92 403.376 127.04V99.84H417.376V127.04C417.376 147.92 423.216 153.76 432.016 157.44V169.6C422.816 167.92 414.416 162.24 410.336 155.68ZM438.336 98.96H452.336V173.92H438.336V135.6H423.776V123.84H438.336V98.96Z" fill="black"/>
</svg>
