<svg width="167" height="40" viewBox="0 0 167 40" fill="none" xmlns="http://www.w3.org/2000/svg">
<g clip-path="url(#clip0_524_6)">
<path d="M66.8913 10.1912C70.7359 10.1912 73.8512 13.2548 73.8512 17.0356V18.7421C73.8512 22.5229 70.7359 25.5865 66.8913 25.5865H64.6698L61.1319 22.1073H66.5173C68.6154 22.1073 70.3133 20.4339 70.3133 18.3743V17.3997C70.3133 15.3364 68.6116 13.6667 66.5173 13.6667H61.1319V22.1073V32.7105H57.594V10.1912H66.8913Z" fill="#009ADE"/>
<path d="M127.204 10.1912H123.7V32.7141H127.204V10.1912Z" fill="#009ADE"/>
<path d="M79.016 14.2441C80.1541 14.2441 81.0767 13.3368 81.0767 12.2176C81.0767 11.0984 80.1541 10.1912 79.016 10.1912C77.8779 10.1912 76.9553 11.0984 76.9553 12.2176C76.9553 13.3368 77.8779 14.2441 79.016 14.2441Z" fill="#009ADE"/>
<path d="M80.77 17.3152H77.2657V32.7142H80.77V17.3152Z" fill="#009ADE"/>
<path d="M135.836 17.3152C133.038 17.3152 130.772 19.5439 130.772 22.295V27.7381C130.772 30.4891 133.038 32.7179 135.836 32.7179H139.957L143.495 29.2387H136.21C135.163 29.2387 134.31 28.4038 134.31 27.3704V22.6627C134.31 21.6329 135.159 20.7944 136.21 20.7944H143.495V32.7142H147.033V17.3152H135.839H135.836Z" fill="#009ADE"/>
<path d="M113.138 10.1912C116.983 10.1912 120.098 13.2548 120.098 17.0356V18.7421C120.098 22.5229 116.983 25.5865 113.138 25.5865H110.917L107.379 22.1073H112.765C114.863 22.1073 116.56 20.4339 116.56 18.3743V17.3997C116.56 15.3364 114.859 13.6667 112.765 13.6667H107.379V22.1073V32.7105H103.841V10.1912H113.138Z" fill="#009ADE"/>
<path d="M150.601 17.3152V32.7142H154.045V20.7944V17.3152H150.601Z" fill="#009ADE"/>
<path d="M161.94 17.3152H157.583L154.045 20.7944H161.66C162.707 20.7944 163.559 21.6293 163.559 22.6627V32.7142H167.004V22.295C167.004 19.5439 164.737 17.3152 161.94 17.3152Z" fill="#009ADE"/>
<path d="M91.1406 17.3152C87.296 17.3152 84.1807 20.3788 84.1807 24.1596V25.8662C84.1807 29.647 87.296 32.7106 91.1406 32.7106H93.362L96.9 29.2314H91.5145C89.4165 29.2314 87.7186 27.558 87.7186 25.4984V24.5237C87.7186 22.4605 89.4202 20.7908 91.5145 20.7908H96.9V32.6664H96.9112H96.9037V34.042C96.9037 34.2589 96.8738 34.4686 96.8177 34.6709C96.7466 34.932 96.6344 35.1784 96.4886 35.3991C96.036 36.0905 95.2469 36.5502 94.3494 36.5502H86.9482V39.9964H94.57C95.3666 39.9964 96.1258 39.8382 96.8177 39.5477C98.8896 38.6834 100.434 36.6642 100.434 34.3141V17.3079H91.1368L91.1406 17.3152Z" fill="#009ADE"/>
<path d="M36.5646 9.64693C35.4763 9.44465 34.5825 8.66495 34.201 7.64252C32.5443 3.18499 28.1948 0 23.0861 0C17.9775 0 13.628 3.18499 11.9713 7.64252C11.5898 8.66495 10.696 9.44097 9.60767 9.64693C4.16616 10.6657 0.0448273 15.3476 -5.10759e-05 20.9857C-0.0486693 27.4366 5.53495 32.7142 12.0947 32.7142H34.0776C40.6373 32.7142 46.221 27.4366 46.1723 20.9857C46.1275 15.3476 42.0099 10.6657 36.5646 9.64693ZM32.4919 22.3722C32.4919 25.811 29.6571 28.5987 26.1603 28.5987C25.1655 28.5987 24.3614 27.808 24.3614 26.8297C24.3614 26.061 24.8738 25.399 25.6106 25.1453C27.0504 24.6524 28.0676 23.4903 28.0676 22.1442C28.0676 19.9081 25.8237 18.0765 23.0824 18.0765C20.3411 18.0765 18.0972 19.9081 18.0972 22.1442C18.0972 23.4903 19.1144 24.6524 20.5543 25.1453C21.2947 25.399 21.8034 26.061 21.8034 26.8297C21.8034 27.808 20.9993 28.5987 20.0045 28.5987C16.5077 28.5987 13.6729 25.811 13.6729 22.3722V20.6841C13.6729 18.3082 14.6041 16.142 16.115 14.498V10.8569C16.115 9.59544 17.6633 8.96653 18.5721 9.85656L20.5356 11.7874C21.3471 11.5594 22.1998 11.4307 23.0824 11.4307C23.965 11.4307 24.8177 11.5594 25.6293 11.7874L27.5927 9.85656C28.4977 8.96653 30.0498 9.59544 30.0498 10.8569V14.498C31.5607 16.142 32.4919 18.3082 32.4919 20.6841V22.3722ZM24.0585 22.0338C24.0585 21.4233 24.3876 20.9305 24.7915 20.9305C25.1954 20.9305 25.5245 21.4233 25.5245 22.0338C25.5245 22.6444 25.1954 23.1372 24.7915 23.1372C24.3876 23.1372 24.0585 22.6444 24.0585 22.0338ZM22.1063 22.0338C22.1063 22.6444 21.7772 23.1372 21.3733 23.1372C20.9694 23.1372 20.6403 22.6444 20.6403 22.0338C20.6403 21.4233 20.9694 20.9305 21.3733 20.9305C21.7772 20.9305 22.1063 21.4233 22.1063 22.0338Z" fill="#009ADE"/>
</g>
<defs>
<clipPath id="clip0_524_6">
<rect width="167" height="40" fill="white"/>
</clipPath>
</defs>
</svg>
