<svg width="117" height="28" viewBox="0 0 117 28" fill="none" xmlns="http://www.w3.org/2000/svg">
<g clip-path="url(#clip0_30_7197)">
<path d="M46.8639 7.13385C49.5574 7.13385 51.74 9.27839 51.74 11.9249V13.1195C51.74 15.7661 49.5574 17.9106 46.8639 17.9106H45.3075L42.8289 15.4752H46.6019C48.0718 15.4752 49.2613 14.3038 49.2613 12.8621V12.1798C49.2613 10.7355 48.0692 9.56673 46.6019 9.56673H42.8289V15.4752V22.8974H40.3502V7.13385H46.8639Z" fill="black"/>
<path d="M89.119 7.13385H86.6639V22.8999H89.119V7.13385Z" fill="black"/>
<path d="M55.3584 9.97092C56.1557 9.97092 56.8021 9.33582 56.8021 8.55239C56.8021 7.76895 56.1557 7.13385 55.3584 7.13385C54.561 7.13385 53.9147 7.76895 53.9147 8.55239C53.9147 9.33582 54.561 9.97092 55.3584 9.97092Z" fill="black"/>
<path d="M56.5873 12.1206H54.1322V22.8999H56.5873V12.1206Z" fill="black"/>
<path d="M95.1663 12.1206C93.2065 12.1206 91.6187 13.6807 91.6187 15.6064V19.4167C91.6187 21.3424 93.2065 22.9025 95.1663 22.9025H98.0537L100.532 20.4671H95.4283C94.6947 20.4671 94.0973 19.8826 94.0973 19.1592V15.8639C94.0973 15.143 94.6921 14.5561 95.4283 14.5561H100.532V22.8999H103.011V12.1206H95.1689H95.1663Z" fill="black"/>
<path d="M79.2647 7.13385C81.9582 7.13385 84.1408 9.27839 84.1408 11.9249V13.1195C84.1408 15.7661 81.9582 17.9106 79.2647 17.9106H77.7083L75.2296 15.4752H79.0026C80.4725 15.4752 81.6621 14.3038 81.6621 12.8621V12.1798C81.6621 10.7355 80.4699 9.56673 79.0026 9.56673H75.2296V15.4752V22.8974H72.751V7.13385H79.2647Z" fill="black"/>
<path d="M105.511 12.1206V22.8999H107.924V14.5561V12.1206H105.511Z" fill="black"/>
<path d="M113.455 12.1206H110.402L107.924 14.5561H113.258C113.992 14.5561 114.589 15.1405 114.589 15.8639V22.8999H117.003V15.6064C117.003 13.6807 115.415 12.1206 113.455 12.1206Z" fill="black"/>
<path d="M63.8529 12.1206C61.1594 12.1206 58.9768 14.2652 58.9768 16.9117V18.1063C58.9768 20.7528 61.1594 22.8974 63.8529 22.8974H65.4093L67.8879 20.4619H64.1149C62.645 20.4619 61.4555 19.2905 61.4555 17.8488V17.1666C61.4555 15.7223 62.6476 14.5535 64.1149 14.5535H67.8879V22.8665H67.8958H67.8905V23.8293C67.8905 23.9812 67.8696 24.128 67.8303 24.2696C67.7805 24.4524 67.7019 24.6249 67.5997 24.7793C67.2827 25.2633 66.7298 25.5851 66.101 25.5851H60.9157V27.9974H66.2556C66.8137 27.9974 67.3456 27.8867 67.8303 27.6833C69.2818 27.0783 70.364 25.6649 70.364 24.0199V12.1155H63.8503L63.8529 12.1206Z" fill="black"/>
<path d="M25.617 6.75285C24.8546 6.61125 24.2283 6.06546 23.9611 5.34976C22.8004 2.2295 19.7531 0 16.174 0C12.5949 0 9.54767 2.2295 8.38694 5.34976C8.11969 6.06546 7.49347 6.60868 6.73101 6.75285C2.9187 7.46598 0.0312963 10.7433 -0.000145428 14.69C-0.0342073 19.2056 3.87767 22.9 8.47341 22.9H23.8746C28.4704 22.9 32.3822 19.2056 32.3482 14.69C32.3167 10.7433 29.432 7.46598 25.617 6.75285ZM22.7637 15.6605C22.7637 18.0677 20.7776 20.0191 18.3278 20.0191C17.6308 20.0191 17.0675 19.4656 17.0675 18.7808C17.0675 18.2427 17.4264 17.7793 17.9426 17.6017C18.9514 17.2567 19.664 16.4432 19.664 15.5009C19.664 13.9356 18.092 12.6535 16.1714 12.6535C14.2508 12.6535 12.6787 13.9356 12.6787 15.5009C12.6787 16.4432 13.3914 17.2567 14.4002 17.6017C14.919 17.7793 15.2753 18.2427 15.2753 18.7808C15.2753 19.4656 14.712 20.0191 14.015 20.0191C11.5652 20.0191 9.57911 18.0677 9.57911 15.6605V14.4789C9.57911 12.8157 10.2315 11.2994 11.2901 10.1486V7.59985C11.2901 6.71681 12.3748 6.27657 13.0115 6.89959L14.3871 8.25119C14.9556 8.09158 15.553 8.00147 16.1714 8.00147C16.7898 8.00147 17.3871 8.09158 17.9557 8.25119L19.3313 6.89959C19.9654 6.27657 21.0527 6.71681 21.0527 7.59985V10.1486C22.1113 11.2994 22.7637 12.8157 22.7637 14.4789V15.6605ZM16.8553 15.4237C16.8553 14.9963 17.0858 14.6513 17.3688 14.6513C17.6518 14.6513 17.8824 14.9963 17.8824 15.4237C17.8824 15.851 17.6518 16.196 17.3688 16.196C17.0858 16.196 16.8553 15.851 16.8553 15.4237ZM15.4875 15.4237C15.4875 15.851 15.257 16.196 14.974 16.196C14.691 16.196 14.4604 15.851 14.4604 15.4237C14.4604 14.9963 14.691 14.6513 14.974 14.6513C15.257 14.6513 15.4875 14.9963 15.4875 15.4237Z" fill="black"/>
</g>
<defs>
<clipPath id="clip0_30_7197">
<rect width="117" height="28" fill="white"/>
</clipPath>
</defs>
</svg>
