<svg width="224" height="29" viewBox="0 0 224 29" fill="none" xmlns="http://www.w3.org/2000/svg">
<path d="M61.4688 7.42114V25.1946H58.9492V7.42114H61.4688ZM57.0352 9.06177V11.054H55.4531V18.7688C56.2344 18.72 57.0059 18.6418 57.7578 18.554L57.875 20.4094C54.0859 21.0344 49.9844 21.093 46.7227 21.1125L46.4883 19.0813C47.1328 19.0813 47.8164 19.0715 48.5391 19.0618V11.054H46.9766V9.06177H57.0352ZM50.9609 19.0032C51.6445 18.9934 52.3379 18.9641 53.0312 18.925V11.054H50.9609V19.0032ZM77.6313 9.06177V11.1907C77.6313 13.6321 77.6313 16.054 76.9867 19.7258L74.4672 19.511C75.1313 16.093 75.1313 13.554 75.1508 11.1907V11.054H65.0922V9.06177H77.6313ZM79.6234 20.8196V22.8704H63.4125V20.8196H79.6234ZM95.0633 7.90942V9.76489H92.7391V12.1086H94.9461V13.9641H81.8406V12.1086H84.0281V9.76489H81.7234V7.90942H95.0633ZM96.5086 14.9016V16.8547H80.2977V14.9016H96.5086ZM94.5359 17.8704V22.2649H84.6336V23.2415H95.0047V25.0774H82.1922V20.5657H92.075V19.6672H82.1727V17.8704H94.5359ZM86.5281 12.1086H90.2391V9.76489H86.5281V12.1086ZM112.456 7.44067V20.6243H110.093V14.4915H108.55V20.2532H106.226V7.75317H108.55V12.4797H110.093V7.44067H112.456ZM112.905 22.8899V24.8821H100.405V19.3743H102.905V22.8899H112.905ZM104.663 8.86646V14.3938H100.308V16.2102C102.251 16.2004 103.696 16.1125 105.386 15.7805L105.601 17.7532C103.53 18.1243 101.773 18.1829 99.1359 18.1829H97.9055V12.5579H102.261V10.8196H97.8859V8.86646H104.663ZM127.652 8.7688C127.652 13.7297 125.523 17.1086 119.527 19.0227L118.57 17.1086C121.109 16.2883 122.74 15.2727 123.727 14.0422L118.922 14.4329L118.57 12.4602L124.703 12.2454C124.859 11.7864 124.967 11.2883 125.016 10.7805H119.469V8.7688H127.652ZM133.258 7.44067V20.5461H130.777V14.8235H127.555V12.8118H130.777V7.44067H133.258ZM133.707 22.8899V24.8821H121.559V19.2766H124.078V22.8899H133.707ZM150.143 7.42114V16.4641H147.662V12.05H144.323V10.0774H147.662V7.42114H150.143ZM150.143 17.2063V21.9524H140.807V23.0461H150.651V24.9993H138.346V20.136H147.682V19.1204H138.327V17.2063H150.143ZM141.823 9.29614C141.803 11.425 143.053 13.4758 145.885 14.3157L144.577 16.2297C142.672 15.6145 141.344 14.4231 140.573 12.8899C139.801 14.5989 138.395 15.9465 136.315 16.6008L135.026 14.6282C137.975 13.7688 139.284 11.6008 139.303 9.29614V8.00708H141.823V9.29614ZM161.637 8.65161V10.6438H155.524V12.0305H161.11V13.9641H155.524V15.3899C158.649 15.3899 160.632 15.3508 162.887 14.9797L163.141 16.9329C160.602 17.343 158.356 17.4016 154.548 17.3821H153.024V8.65161H161.637ZM166.93 7.44067V18.2024H164.43V7.44067H166.93ZM160.876 18.4368C164.626 18.4368 167.009 19.6868 167.028 21.8157C167.009 23.9641 164.626 25.1946 160.876 25.1946C157.067 25.1946 154.762 23.9641 154.762 21.8157C154.762 19.6868 157.067 18.4368 160.876 18.4368ZM160.876 20.3704C158.493 20.3704 157.243 20.8586 157.243 21.8157C157.243 22.7922 158.493 23.3 160.876 23.3C163.239 23.3 164.528 22.7922 164.528 21.8157C164.528 20.8586 163.239 20.3704 160.876 20.3704ZM180.076 10.9368C180.076 13.0657 181.384 15.2336 184.314 16.1125L183.045 18.0657C181.052 17.4407 179.646 16.1614 178.845 14.55C178.035 16.2981 176.589 17.7043 174.509 18.3977L173.22 16.4446C176.17 15.4875 177.537 13.1829 177.537 10.9368V10.6829H173.884V8.69067H183.65V10.6829H180.076V10.9368ZM188.025 7.44067V20.2922H185.525V7.44067H188.025ZM188.494 22.8899V24.8821H176.111V19.1204H178.63V22.8899H188.494ZM204.129 7.42114V12.2649H206.531V14.3157H204.129V20.2727H201.629V7.42114H204.129ZM198.738 8.84692V10.8391H193.211V15.3313C196.424 15.3118 198.191 15.2141 200.184 14.7844L200.438 16.7766C198.211 17.2454 196.16 17.343 192.215 17.343H190.711V8.84692H198.738ZM204.773 22.8899V24.8821H192.605V18.9055H195.086V22.8899H204.773ZM213.631 11.4446C213.631 14.7844 214.979 18.0266 217.948 19.3157L216.424 21.3079C214.452 20.3411 213.133 18.5735 212.401 16.386C211.62 18.7102 210.252 20.6145 208.221 21.6204L206.659 19.5891C209.705 18.2219 211.092 14.7844 211.112 11.4446V8.78833H213.631V11.4446ZM221.913 7.42114V25.2336H219.452V15.0188H215.955V13.0071H219.452V7.42114H221.913Z" fill="#1D9ADD"/>
<g clip-path="url(#clip0_195_2730)">
<path d="M30.0927 8.14954C29.197 7.97866 28.4614 7.31999 28.1475 6.45625C26.784 2.69062 23.2043 0 18.9999 0C14.7955 0 11.2158 2.69062 9.85232 6.45625C9.53837 7.31999 8.80275 7.97555 7.90707 8.14954C3.4287 9.01017 0.0368282 12.9653 -0.000106854 17.7283C-0.0401198 23.1779 4.55522 27.6364 9.95389 27.6364H28.0459C33.4446 27.6364 38.0399 23.1779 37.9999 17.7283C37.963 12.9653 34.5742 9.01017 30.0927 8.14954ZM26.7409 18.8996C26.7409 21.8046 24.4078 24.1597 21.5299 24.1597C20.7112 24.1597 20.0495 23.4917 20.0495 22.6652C20.0495 22.0159 20.4711 21.4566 21.0775 21.2423C22.2625 20.8259 23.0997 19.8441 23.0997 18.707C23.0997 16.8179 21.2529 15.2707 18.9968 15.2707C16.7407 15.2707 14.894 16.8179 14.894 18.707C14.894 19.8441 15.7311 20.8259 16.9161 21.2423C17.5256 21.4566 17.9442 22.0159 17.9442 22.6652C17.9442 23.4917 17.2824 24.1597 16.4637 24.1597C13.5858 24.1597 11.2528 21.8046 11.2528 18.8996V17.4735C11.2528 15.4664 12.0192 13.6364 13.2627 12.2476V9.17173C13.2627 8.10604 14.5369 7.57476 15.2848 8.32664L16.9008 9.95779C17.5687 9.76516 18.2704 9.65642 18.9968 9.65642C19.7232 9.65642 20.425 9.76516 21.0929 9.95779L22.7088 8.32664C23.4536 7.57476 24.731 8.10604 24.731 9.17173V12.2476C25.9745 13.6364 26.7409 15.4664 26.7409 17.4735V18.8996ZM19.8002 18.6138C19.8002 18.098 20.071 17.6817 20.4034 17.6817C20.7358 17.6817 21.0067 18.098 21.0067 18.6138C21.0067 19.1295 20.7358 19.5459 20.4034 19.5459C20.071 19.5459 19.8002 19.1295 19.8002 18.6138ZM18.1935 18.6138C18.1935 19.1295 17.9226 19.5459 17.5902 19.5459C17.2578 19.5459 16.9869 19.1295 16.9869 18.6138C16.9869 18.098 17.2578 17.6817 17.5902 17.6817C17.9226 17.6817 18.1935 18.098 18.1935 18.6138Z" fill="#009ADE"/>
</g>
<defs>
<clipPath id="clip0_195_2730">
<rect width="38" height="27.6364" fill="white"/>
</clipPath>
</defs>
</svg>
